<?xml version="1.0" standalone="no"?><!DOCTYPE svg PUBLIC "-//W3C//DTD SVG 1.1//EN" "http://www.w3.org/Graphics/SVG/1.1/DTD/svg11.dtd"><svg t="1567497027032" class="icon" viewBox="0 0 1024 1024" version="1.1" xmlns="http://www.w3.org/2000/svg" p-id="2085" width="200" height="200" data-spm-anchor-id="a313x.7781069.0.i3" xmlns:xlink="http://www.w3.org/1999/xlink"><defs><style type="text/css"></style></defs><path d="M959.83 501.91c-2.27-27.38-36.33-41.65-58.36-48.89-43.27-14.22-87.47-26.13-131.12-39.15-39.35-11.74-84.71-19.64-119.67-42.12-37.2-23.93-34.7-69-34.45-107.9 0.25-40.18-0.36-83.19-9-122.57-5.92-27-27.19-49.17-55.84-36.88-29.21 12.53-43.94 53.24-57.09 79.09-12.3 24.23-23.3 49.22-33.75 74.32-8.9 21.39-14.79 45.41-29.66 63.66-11.72 14.38-29.37 15.63-46.89 16.43-22.94 1-45.93 1.09-68.88 0.51a978.39 978.39 0 0 1-131.79-12.63c-34.9-5.65-71.59-15-102.1 8.47-25.78 19.82-19.77 51.89-0.83 73.61 11.23 12.88 26.24 22.57 40.22 32.11a592.31 592.31 0 0 0 60.68 35.94 606.28 606.28 0 0 0 55.74 25.29c10.35 4.12 21 7.34 29.36 15.15 9.11 8.55 7.22 22.11 4.1 32.72-5.46 18.57-17.36 35.66-26.11 52.78-10.32 20.19-19.87 40.77-28.86 61.58-8.79 20.35-16.75 41-24.2 61.92-5.86 16.42-11.71 32.76-13.21 50.23-2.4 27.9 14.76 49.19 43.9 46.59C257.9 819 289.6 802 317.9 780.57c32.63-24.68 59.55-56.09 90.06-83.19 15.17-13.48 31.67-27.39 51.43-33.31C486.24 656 499.49 679 505.48 701c12.08 44.25 20.66 89.75 30.9 134.46 7.43 32.47 14.2 67.21 46.76 83.34 28.09 13.92 52-8.39 62.81-32.44 6.75-15.06 9.42-32 12.65-48 4.61-22.9 8-46 10.73-69.22 2.49-21.42 4-42.95 4.89-64.49 1-23.18-0.58-46.58 1.45-69.69 4.44-50.54 61.8-48.43 99.61-53.17 43.74-5.48 88.1-12.58 130.73-24 27.23-7.34 56.48-23.88 53.82-55.88z" fill="#09518C" p-id="2086" data-spm-anchor-id="a313x.7781069.0.i2" class="selected"></path><path d="M549.76 500.27c4.29-12.25-13.77-17.39-29.95-19.79-1.54-12.25-4.52-25.63-12.41-32-14-11.31-25.72 14.74-29.9 24.76-12.6-3.58-25.49-6.6-37-0.2-3.25 1.81-4.62 6.21-2 9.2 7.58 8.48 16.33 15.56 25 22.75-5.07 9.17-11.21 19.3-11 30a6 6 0 0 0 1.72 7.9c9.58 6.87 26.34-4.43 36.58-11.11 6.64 7.5 13.87 14.57 23.66 16.78 3 0.67 6.65-0.25 7.57-3.64 2.43-9 2.28-19.14 1.44-29.07 8.53-3.04 23.13-6.55 26.29-15.58z" fill="#FFFFFF" p-id="2087"></path><path d="M547.55 359.35c-1.23-7.62-6.67-15.44-14.32-17.66a29.52 29.52 0 0 0-3.17-0.76 17.14 17.14 0 0 0-9.54-0.89 17.87 17.87 0 0 0-7.12 3.2c-3.62 2.06-6.92 5.58-8 9.59a34.26 34.26 0 0 0-1.5 9.71q-0.23 1-0.44 2.09c-0.86 4.24 1.54 9.62 4.2 12.75 3.28 3.87 7.48 5.5 12.36 6.23a20.42 20.42 0 0 0 3.09 0.19l1.07 0.19a20.77 20.77 0 0 0 6.22-0.31 19.67 19.67 0 0 0 5.79-1.92c3.76-1.86 5.24-3.54 7.91-6.64 3.58-4.18 4.29-10.54 3.45-15.77zM389.61 470.93a17.71 17.71 0 0 0 3.29-20.11c-1.88-3.91-5.8-8-10.16-9.09-3.36-0.83-6.71-2.56-10.23-2.37-4.62 0.24-5.26 0.09-9.56 1.86a21.22 21.22 0 0 0-4.62 2.95c-3.44 2.63-5.23 6.48-7 10.27a12.85 12.85 0 0 0-1.08 5.32 17.73 17.73 0 0 0 0.06 6.29c0.95 4.84 3.64 8.2 7.34 11.25a19.83 19.83 0 0 0 6.35 3.3 20.54 20.54 0 0 1 3 1 17.73 17.73 0 0 0 9.29 0.68c4.23-0.83 9-3.5 11.25-7.34 0.67-1.16 1.31-2.36 1.88-3.58 0.03-0.15 0.12-0.29 0.19-0.43zM401 605.25l0.17-0.84c0.05-0.14 0.12-0.27 0.17-0.42a17.81 17.81 0 0 0-10.92-22.7 17.56 17.56 0 0 0-1.77-0.51 18.53 18.53 0 0 0-11.65-1.65c-4.25 0.83-9.18 3.52-11.32 7.4a17.92 17.92 0 0 0-2.73 6.28 22.32 22.32 0 0 0-1.91 7c-0.54 3.31 0.68 6 1.72 9s3.73 5.13 6 7c3.81 3.18 10.32 4 15 2.6l0.53-0.17a18.09 18.09 0 0 0 6.73-2.34c0.24-0.1 0.48-0.2 0.71-0.31 3.99-1.97 8.27-5.88 9.27-10.34zM584.82 624.54a14 14 0 0 0-2-6.29c-2.91-4.66-2.06-3.56-6.17-7.24-1.35-1.21-3.2-1.76-4.8-2.54-2.35-1.15-7.34-1.42-9.86-0.76-4.61 1.2-8.48 3.31-11.28 7.36-2.53 3.65-4.19 9.25-2.85 13.61l0.27 0.81c-0.11 2.42 0.69 6.68 1.79 8.38l2.52 3.88a17.6 17.6 0 0 0 7.75 5.29c4.44 1.18 9.5 1.57 13.71-0.78a26.93 26.93 0 0 0 4.33-2.86 19 19 0 0 0 5.83-8.22c1.39-3.98 1.04-6.58 0.76-10.64zM648.47 510.28a17.11 17.11 0 0 0 3.12-9.41 24.08 24.08 0 0 0-0.44-5.33c-1.18-4-1.48-5-4-8.41-2.15-2.83-5.23-4.54-8.44-5.85a17.75 17.75 0 0 0-23.93 8 18.51 18.51 0 0 0-3.16 5.5c-1.39 4-1 6-0.76 10a18.78 18.78 0 0 0 1.63 5.26c1.26 3.32 3.94 5.4 6.48 7.62a15.91 15.91 0 0 0 5.22 2.63 17.63 17.63 0 0 0 14-1 23.92 23.92 0 0 0 6.4-5c0.15-0.14 0.28-0.29 0.44-0.42l-0.14 0.09a14.74 14.74 0 0 0 3.58-3.68zM557 279.4a15.07 15.07 0 0 0-5.08-8.68c-0.84-0.78-1.71-1.53-2.54-2.28a14.5 14.5 0 0 0-5.56-3.19c-2.36-0.6-5.35-1.34-7.82-0.57s-5.08 1.38-6.89 3.33-3.66 3.59-4.41 6.47c-0.14 0.53-0.26 1-0.37 1.54a14.28 14.28 0 0 0-1.4 5.24c-0.34 4.89 2 11 6.57 13.5 2.79 1.52 5 2.67 8.25 2.72 0.57 0 1.14 0 1.71-0.05H540.44c0.64 0 1.28-0.11 1.91-0.2l0.58-0.06 0.47-0.09a14 14 0 0 0 1.85-0.22A14.84 14.84 0 0 0 557 279.4zM718.68 484a17.72 17.72 0 0 0-20.81 10c-2.76 7.87 1.58 15.94 9.1 18.92a16 16 0 0 0 20.81-10c2.37-7.75-1.23-16.18-9.1-18.92zM596.63 697.59c-18.07-6.33-27.89 21.68-9.82 28s27.89-21.67 9.82-28zM333.19 641.43a15 15 0 0 0-18.92 9.1l-0.49 1.4a14.84 14.84 0 1 0 28 9.82l0.49-1.4a15 15 0 0 0-9.08-18.92zM312.26 443.71c-0.6-6.08-6-12.19-12-13.56l-3.9-0.81A14.85 14.85 0 0 0 282 450.59a16.4 16.4 0 0 0 4.05 5.19 15.92 15.92 0 0 0 3.18 3 14.85 14.85 0 0 0 20.66-3.78c2.44-3.53 2.78-7.17 2.37-11.29zM791.32 492.14l-1.4-0.49a13.36 13.36 0 0 0-8.84 25.21l1.4 0.49a13.36 13.36 0 0 0 8.84-25.21zM560 209.74l-1.4-0.49a13.36 13.36 0 1 0-8.84 25.21l1.4 0.49a13.36 13.36 0 0 0 8.84-25.21zM249.86 412.47l-1.4-0.49a13.36 13.36 0 0 0-8.84 25.21l1.4 0.49a13.36 13.36 0 1 0 8.84-25.21zM295.34 691.08l-1.4-0.49a13.36 13.36 0 0 0-8.84 25.21l1.4 0.49a13.36 13.36 0 0 0 8.84-25.21zM609.79 758.79a13.48 13.48 0 0 0-17 8.19l-0.84 2.38a13.36 13.36 0 1 0 25.21 8.84l0.84-2.38a13.48 13.48 0 0 0-8.21-17.03zM850 495.39a12 12 0 0 0-15.13 7.28l-0.49 1.4a11.87 11.87 0 1 0 22.41 7.86l0.49-1.4a12 12 0 0 0-7.28-15.14zM571.23 150.76a12 12 0 0 0-15.14 7.24l-0.49 1.4a11.87 11.87 0 1 0 22.4 7.89l0.49-1.4a12 12 0 0 0-7.26-15.13zM190.38 392.16a12 12 0 0 0-15.85-5.55l-1.89 0.91a11.87 11.87 0 1 0 10.29 21.4l1.89-0.91a12 12 0 0 0 5.56-15.85zM246.64 744.79a12 12 0 0 0-15.13 7.28l-0.49 1.4a11.87 11.87 0 1 0 22.41 7.86l0.49-1.4a12 12 0 0 0-7.28-15.14zM614.23 835.88c-14.45-5.07-22.31 17.35-7.86 22.41s22.31-17.35 7.86-22.41z" fill="#99E0FF" p-id="2088"></path></svg>